<svg xmlns="http://www.w3.org/2000/svg" width="649" height="420" viewBox="0 0 649 420" version="1.1">
	<path d="M 520.500 5.064 C 464.945 8.096, 413.175 25.581, 371.500 55.387 C 331.631 83.901, 297.339 125.938, 277.995 170.011 L 274.784 177.328 277.142 179.183 C 285.541 185.787, 318.592 203.374, 336 210.503 C 351.998 217.054, 390.244 230, 393.599 230 C 396.840 230, 394.261 232.248, 381.250 240.765 C 342.508 266.124, 313.206 281.995, 274.927 298.351 C 243.611 311.732, 202.051 330.929, 173 345.431 C 107.353 378.203, 81.522 397.897, 88.091 410.170 C 89.855 413.466, 100.509 417.643, 110.500 418.955 C 117.028 419.812, 145.039 420.050, 212.500 419.819 C 316.353 419.463, 306.699 420.128, 322.920 412.214 C 348.291 399.836, 382.324 365.767, 416.382 318.653 C 431.887 297.202, 465 247.733, 465 246.018 C 465 245.508, 463.313 244.835, 461.250 244.523 C 442.352 241.660, 399.345 232.575, 397.767 231.113 C 397.364 230.740, 405.220 224.374, 415.225 216.967 C 454.708 187.737, 479.013 167.034, 509.068 137.033 C 541.797 104.363, 560.381 81.107, 571.833 58.488 C 577.784 46.735, 580.134 38.836, 580.167 30.477 C 580.213 18.691, 575.675 12.274, 564.266 7.991 C 553.407 3.915, 548.077 3.558, 520.500 5.064 M 583.513 82.686 C 576.616 86.272, 561.310 101.992, 550.135 116.967 C 539.522 131.189, 521.849 157.318, 507.501 180 C 502.108 188.525, 494.675 200.225, 490.981 206 C 487.288 211.775, 480.207 222.872, 475.245 230.660 L 466.224 244.819 469.362 245.385 C 477.220 246.802, 497.009 248.977, 513 250.182 C 531.751 251.594, 608.294 252.040, 609.589 250.744 C 611.305 249.028, 614.097 197.711, 614.201 166 C 614.335 124.604, 612.261 105.159, 606.276 91.723 C 601.140 80.192, 593.864 77.304, 583.513 82.686" stroke="none" fill="#cdd2be" fill-rule="evenodd"/>
</svg>